<?xml version="1.0" encoding="UTF-8"?>
<svg xmlns="http://www.w3.org/2000/svg" width="38" height="38" viewBox="0 0 38 38" fill="none">
  <g clip-path="url(#clip0_1_136)">
    <path d="M3.9065 20.3551V32.4932H19.6956V32.0779C19.6956 30.3476 19.6956 28.6087 19.6956 26.8784C19.6956 26.7745 19.6956 26.6794 19.6956 26.5756C19.7215 26.2122 19.9551 25.97 20.2925 25.97C20.6299 25.97 20.8808 26.1949 20.9068 26.5583C20.9241 26.8265 20.9068 27.086 20.9068 27.3542C20.9068 28.9201 20.9068 30.4947 20.9068 32.0606V32.5192C21.2961 32.5192 21.6595 32.5192 22.0228 32.5192C22.4986 32.5192 22.7236 32.7441 22.7236 33.2199C22.7236 33.7217 22.7582 34.2408 22.689 34.734C22.4727 36.3085 21.2269 37.3813 19.6177 37.3813C14.3922 37.3813 9.15798 37.3813 3.93245 37.3813C3.73347 37.3813 3.52583 37.364 3.32685 37.3208C1.89069 37.0526 0.86116 35.85 0.835205 34.3879C0.835205 34.0072 0.835205 33.6266 0.835205 33.2459C0.835205 32.7268 1.06014 32.5192 1.58789 32.5192C1.9253 32.5192 2.27136 32.5192 2.66068 32.5192V32.0606C2.66068 28.0463 2.66068 24.032 2.66068 20.0263C2.66068 19.3256 2.83371 19.1525 3.53448 19.1525C5.29075 19.1525 7.05566 19.1525 8.81192 19.1525C9.13203 19.1525 9.39157 19.2477 9.50404 19.5678C9.65112 19.9831 9.34832 20.3638 8.86383 20.3638C7.93812 20.3638 7.0124 20.3638 6.09534 20.3638C5.37726 20.3638 4.65918 20.3638 3.89785 20.3638L3.9065 20.3551ZM5.09176 36.1528C5.15232 35.6597 4.95334 34.9935 5.68006 34.9675C6.49331 34.9416 6.27702 35.6683 6.33758 36.1269H17.2558C17.2991 35.2184 17.4202 34.9502 17.8268 34.9589C18.6574 34.9762 18.4411 35.651 18.5016 36.1269C21.1058 36.4902 21.7114 35.0887 21.4778 33.7563H2.07237C2.07237 34.0072 2.06372 34.2322 2.07237 34.4571C2.12428 35.3482 2.84236 36.0922 3.72482 36.1528C4.16605 36.1874 4.60727 36.1528 5.08311 36.1528H5.09176Z" fill="white"></path>
    <path d="M19.0813 15.2074C16.5291 17.3098 14.0202 19.3861 11.468 21.4884C11.6583 21.8259 11.8487 22.1633 12.039 22.5007C12.3331 23.0025 12.6273 23.5043 12.9128 24.0147C13.181 24.4819 13.1377 24.8452 12.7917 25.0356C12.4543 25.2259 12.1255 25.0702 11.8487 24.603C11.3901 23.8071 10.9229 23.0111 10.4471 22.1719C9.68577 22.6218 8.92444 23.0284 8.21501 23.5043C7.73053 23.8244 7.61805 24.4819 7.90356 25.001C8.30153 25.719 8.70815 26.4371 9.14072 27.1379C9.47813 27.6916 10.1183 27.856 10.7067 27.5791C10.7326 27.5705 10.7499 27.5618 10.7759 27.5445C13.2589 25.8661 16.1398 25.0875 18.8824 24.0147C20.3012 23.461 21.746 22.9419 23.2168 22.3882C23.1389 22.2498 23.0784 22.1287 23.0091 22.0162C22.2045 20.6233 21.4 19.239 20.604 17.8461C20.3618 17.4222 20.4829 17.0069 20.8722 16.8772C21.1923 16.7734 21.4519 16.8945 21.6768 17.2751C22.4381 18.5902 23.1908 19.9052 23.9522 21.2202C24.1511 21.5577 24.3501 21.8951 24.5405 22.2411C24.8433 22.7862 24.7308 23.1063 24.1425 23.3312C21.6508 24.2742 19.1506 25.2086 16.6503 26.143C16.1744 26.316 15.7072 26.4977 15.1968 26.688C15.5775 27.3542 15.9581 27.9857 16.3042 28.6433C16.8319 29.6209 16.408 30.8061 15.4044 31.2128C14.5566 31.5588 13.6309 31.2387 13.1377 30.4255C12.7311 29.742 12.3418 29.0499 11.9871 28.4443C11.3469 28.626 10.7586 28.8509 10.153 28.9374C9.50409 29.0239 8.95904 28.6865 8.46591 28.2539C8.24097 28.3751 8.02468 28.5048 7.79974 28.6173C6.89998 29.0672 5.84449 28.7557 5.36 27.8992C4.87552 27.0427 5.15237 25.9872 6.00887 25.4508C6.06943 25.4076 6.13864 25.3643 6.20785 25.3384C6.52796 25.2173 6.63178 25.0356 6.57987 24.6549C6.4674 23.7638 6.83942 23.0284 7.55749 22.4747C7.6094 22.4401 7.66131 22.3969 7.71322 22.3709C10.3519 21.0905 12.4629 19.0747 14.7037 17.2492C16.0447 16.1504 17.377 15.0431 18.718 13.9443C19.2025 13.5463 19.5485 13.6069 19.86 14.1346C20.0244 14.4201 20.1974 14.697 20.3531 14.9911C20.5435 15.3372 20.4656 15.6833 20.1714 15.8563C19.86 16.0466 19.5226 15.9515 19.2976 15.6054C19.2284 15.5016 19.1679 15.3891 19.064 15.2247L19.0813 15.2074ZM14.0115 27.1206C13.6395 27.3369 13.3108 27.5186 12.9647 27.7262C13.3886 28.4616 13.7866 29.1624 14.2019 29.8545C14.3749 30.14 14.721 30.2092 14.9978 30.0535C15.266 29.8977 15.3958 29.5603 15.2314 29.2662C14.8421 28.5567 14.4268 27.8646 14.0029 27.1292L14.0115 27.1206ZM7.74783 27.1985C7.64401 27.0168 7.54884 26.8524 7.46233 26.688C7.36716 26.515 7.26334 26.3506 7.15952 26.1862C6.37223 26.5842 6.1646 26.8957 6.40684 27.3023C6.64043 27.7089 7.04705 27.6829 7.74783 27.2071V27.1985Z" fill="white"></path>
    <path d="M31.8596 0.906448C33.0362 0.906448 34.2128 0.906448 35.3894 0.906448C36.5574 0.906448 37.3187 1.66778 37.3274 2.82709C37.3274 5.19761 37.3274 7.55948 37.3274 9.93C37.3274 11.072 36.5574 11.842 35.424 11.842C33.0449 11.842 30.6657 11.842 28.2865 11.842C27.1705 11.842 26.4005 11.0633 26.3918 9.95595C26.3918 8.81395 26.3918 7.6806 26.3918 6.5386C26.3918 6.05411 26.6081 5.77726 26.9888 5.76861C27.3781 5.75996 27.6117 6.04546 27.6117 6.54725C27.6117 7.64599 27.6117 8.75339 27.6117 9.85214C27.6117 10.4145 27.8193 10.6221 28.399 10.6221C30.7176 10.6221 33.0362 10.6221 35.3462 10.6221C35.9172 10.6221 36.1248 10.4145 36.1248 9.84348C36.1248 7.52487 36.1248 5.20626 36.1248 2.8963C36.1248 2.3253 35.9172 2.11766 35.3462 2.11766C33.0276 2.11766 30.709 2.11766 28.399 2.11766C27.828 2.11766 27.629 2.3253 27.6204 2.8963C27.6204 3.22506 27.6204 3.55382 27.6204 3.88258C27.6117 4.2892 27.3522 4.5574 26.9975 4.54874C26.6514 4.54009 26.4178 4.28055 26.4091 3.88258C26.4091 3.49326 26.4005 3.09529 26.4091 2.70597C26.4351 1.69374 27.2137 0.9151 28.2346 0.906448C29.4458 0.897797 30.6657 0.906448 31.8769 0.906448H31.8596Z" fill="white"></path>
    <path d="M26.3832 25.2259C26.3832 24.0493 26.3832 22.8727 26.3832 21.6961C26.3832 20.5108 27.1532 19.7581 28.3385 19.7581C30.683 19.7581 33.019 19.7581 35.3635 19.7581C36.5574 19.7581 37.3188 20.5108 37.3188 21.6961C37.3188 22.8208 37.3188 23.9455 37.3188 25.0788C37.3188 25.5547 37.0852 25.8402 36.7132 25.8402C36.3325 25.8402 36.1075 25.5633 36.1075 25.0788C36.1075 23.9628 36.1075 22.8467 36.1075 21.7394C36.1075 21.1943 35.8913 20.978 35.3462 20.978C33.019 20.978 30.6917 20.978 28.3558 20.978C27.8107 20.978 27.5944 21.1857 27.5944 21.7307C27.5944 24.058 27.5944 26.3852 27.5944 28.7211C27.5944 29.2662 27.8107 29.4825 28.3471 29.4825C30.6744 29.4825 33.0016 29.4825 35.3376 29.4825C35.8826 29.4825 36.0989 29.2662 36.0989 28.7298C36.0989 28.3837 36.0989 28.0463 36.0989 27.7003C36.1076 27.3109 36.3498 27.0514 36.6959 27.0514C37.0419 27.0514 37.2928 27.3023 37.3101 27.6916C37.3188 28.1242 37.3274 28.5568 37.3101 28.9807C37.2669 29.8977 36.5142 30.6764 35.5885 30.685C33.0968 30.7023 30.5965 30.7023 28.1049 30.685C27.1359 30.685 26.3832 29.8631 26.3746 28.8682C26.3659 27.657 26.3746 26.4371 26.3746 25.2259H26.3832Z" fill="white"></path>
    <path d="M9.36567 11.8852C9.36567 13.4339 9.36567 14.9738 9.36567 16.5225C9.36567 17.1194 9.16668 17.3184 8.56972 17.3184C6.26842 17.3184 3.95846 17.3184 1.65715 17.3184C1.06019 17.3184 0.861206 17.1194 0.861206 16.5225C0.861206 13.4079 0.861206 10.2934 0.861206 7.17881C0.861206 6.58185 1.06019 6.38287 1.65715 6.38287C3.95846 6.38287 6.26842 6.38287 8.56972 6.38287C9.16668 6.38287 9.36567 6.58185 9.36567 7.17881C9.36567 8.74473 9.36567 10.3193 9.36567 11.8852ZM8.13715 7.62004H2.09838V16.0812H8.1285V7.62004H8.13715Z" fill="white"></path>
    <path d="M10.5768 5.75996C10.5941 2.73192 13.0598 0.283535 16.0792 0.300838C19.1072 0.318141 21.5383 2.77518 21.521 5.81187C21.5037 8.8226 19.0294 11.2537 15.984 11.2364C13.0079 11.2191 10.5682 8.74474 10.5768 5.75996ZM20.3011 5.75996C20.3011 3.41539 18.3891 1.5034 16.0532 1.51205C13.6914 1.51205 11.788 3.42404 11.7967 5.78591C11.7967 8.09587 13.7087 10.0165 16.0273 10.0165C18.3978 10.0165 20.3098 8.12183 20.3011 5.75996Z" fill="white"></path>
    <path d="M34.282 25.2086C34.282 26.5583 33.2006 27.6483 31.8509 27.6483C30.5272 27.6483 29.4285 26.5669 29.4199 25.2432C29.4112 23.8936 30.4926 22.7948 31.8336 22.7862C33.1746 22.7775 34.282 23.8676 34.282 25.2086ZM31.8509 24.0061C31.1848 24.0061 30.6484 24.5511 30.6397 25.2173C30.6397 25.8921 31.2021 26.4458 31.8769 26.4371C32.5431 26.4285 33.0708 25.8748 33.0708 25.2086C33.0708 24.5511 32.5085 24.0061 31.8509 24.0061Z" fill="white"></path>
    <path d="M31.851 5.75131C32.8027 5.79457 33.0536 5.93299 33.0622 6.35692C33.0709 6.78949 32.8113 6.93657 31.851 6.99713C31.851 7.56813 31.851 8.14778 31.851 8.72744C31.851 9.0735 31.6953 9.31574 31.3579 9.39361C30.9859 9.48012 30.6484 9.18597 30.6398 8.76204C30.6311 8.18239 30.6398 7.60274 30.6398 6.99713C30.1467 6.91927 29.4372 7.13555 29.4459 6.34827C29.4545 5.59558 30.138 5.79457 30.6398 5.73401C30.6398 5.50042 30.6398 5.29278 30.6398 5.07649C30.6744 4.11617 31.4357 3.35483 32.3961 3.32023C32.8027 3.30292 33.2093 3.31158 33.6073 3.32023C34.0225 3.32023 34.2821 3.57977 34.2821 3.93449C34.2821 4.2892 34.0139 4.52279 33.59 4.53144C33.2872 4.53144 32.9844 4.53144 32.6816 4.53144C32.0413 4.53144 31.8597 4.73043 31.8597 5.37929C31.8597 5.49176 31.8597 5.60423 31.8597 5.73401L31.851 5.75131Z" fill="white"></path>
    <path d="M25.8122 18.5383C25.4056 18.5383 25.146 18.3133 25.1114 17.9932C25.0768 17.6731 25.2931 17.4049 25.6564 17.3271C26.6341 17.1281 27.6117 16.9291 28.598 16.7388C29.0305 16.6522 29.3507 16.8339 29.4285 17.1886C29.5064 17.5693 29.2987 17.8548 28.8316 17.95C27.8885 18.149 26.9455 18.3306 26.0025 18.521C25.9246 18.5383 25.8554 18.5383 25.8122 18.5383Z" fill="white"></path>
    <path d="M21.4518 13.1224C21.5556 12.9061 21.5989 12.7677 21.6767 12.6639C22.2564 11.8853 22.836 11.1066 23.4243 10.328C23.6752 9.99922 24.0213 9.93866 24.3154 10.1549C24.6009 10.3712 24.6442 10.7173 24.3933 11.0547C23.8137 11.8333 23.234 12.612 22.6457 13.382C22.464 13.6242 22.2045 13.7713 21.919 13.6069C21.7286 13.4944 21.5989 13.2695 21.4518 13.1138V13.1224Z" fill="white"></path>
    <path d="M26.4524 12.9926C26.6168 13.157 26.8331 13.2868 26.9455 13.4858C27.0926 13.754 26.9542 14.0049 26.7206 14.1779C25.9333 14.7749 25.1547 15.3632 24.3587 15.9515C24.03 16.1937 23.6666 16.1418 23.459 15.8476C23.26 15.5621 23.3119 15.2247 23.632 14.9825C24.1425 14.5932 24.6615 14.2125 25.172 13.8232C25.4315 13.6242 25.6911 13.4252 25.9593 13.2349C26.0804 13.1484 26.2275 13.1051 26.4524 12.9926Z" fill="white"></path>
    <path d="M5.08309 12.4562C4.70242 12.4562 4.32175 12.4562 3.94109 12.4562C3.55177 12.4476 3.29222 12.2053 3.28357 11.8593C3.28357 11.5046 3.54312 11.245 3.94974 11.245C4.71972 11.245 5.49836 11.245 6.26835 11.245C6.65767 11.245 6.91721 11.4959 6.92587 11.8333C6.92587 12.188 6.66632 12.4389 6.2597 12.4562C5.87038 12.4562 5.47241 12.4562 5.08309 12.4562Z" fill="white"></path>
    <path d="M5.10039 14.8873C4.71972 14.8873 4.33906 14.8873 3.95839 14.8873C3.54312 14.8787 3.28357 14.6278 3.28357 14.2731C3.28357 13.9184 3.55177 13.6761 3.97569 13.6761C4.73703 13.6761 5.49836 13.6761 6.25105 13.6761C6.66632 13.6761 6.92587 13.9357 6.92587 14.2904C6.92587 14.6451 6.65767 14.8787 6.23374 14.8873C5.85308 14.8873 5.47241 14.8873 5.09174 14.8873H5.10039Z" fill="white"></path>
    <path d="M5.69695 10.0248C5.49803 10.0248 5.29047 10.0334 5.09155 10.0248C4.75425 9.99882 4.52073 9.75666 4.51208 9.43666C4.51208 9.10801 4.7456 8.8399 5.10019 8.8226C5.51533 8.80531 5.93912 8.80531 6.35425 8.8226C6.69155 8.8399 6.92506 9.09071 6.93371 9.41071C6.93371 9.73936 6.7002 9.99882 6.3456 10.0248C6.12939 10.0421 5.91317 10.0248 5.69695 10.0248Z" fill="white"></path>
    <path d="M14.2278 5.75996C14.2278 5.18896 14.2278 4.61796 14.2278 4.05561C14.2278 3.45 14.6517 3.19045 15.2054 3.45865C16.3647 4.02965 17.5154 4.592 18.6574 5.19761C18.8477 5.30143 19.0207 5.55232 19.0726 5.76861C19.1332 6.05411 18.9083 6.24445 18.6487 6.37422C17.4981 6.94522 16.3474 7.53352 15.1881 8.09587C14.6604 8.35542 14.2451 8.09587 14.2364 7.50757C14.2278 6.92792 14.2364 6.33961 14.2364 5.75996H14.2278ZM15.4563 6.60781C16.0273 6.32231 16.5377 6.06276 17.1174 5.76861C16.5291 5.47446 16.01 5.21491 15.4563 4.93806V6.60781Z" fill="white"></path>
  </g>
  <defs>
    <clipPath id="clip0_1_136">
      <rect width="36.4835" height="37.0805" fill="white" transform="translate(0.852539 0.300835)"></rect>
    </clipPath>
  </defs>
</svg>
